:version 1.10
:name ASF
:units
  mass 1
  length 1
  angle deg
:documentation
  ASF file generated by Kaydara
:root
  axis xyz
  order  tx ty tz rx ry rz
  position 0 0 0
  orientation 0 0 0
:bonedata
  begin
    id 1
    name SpineDummy
    direction 0.999998 -0.00179978 1.38929e-006
    length 3.60008
    axis 0 0 0 xyz
  end
  begin
    id 2
    name Spine
    direction 0.964365 0.262802 0.0305839
    length 8.13928
    axis 1.33928 -1.75354 15.2838 xyz
    dof rx ry rz
  end
  begin
    id 3
    name Spine1
    direction 0.811168 0.572065 0.12144
    length 7.14954
    axis 2.2224 -6.9761 35.2157 xyz
    dof rx ry rz
  end
  begin
    id 4
    name Neck
    direction 0 0 0
    length 0
    axis 2.2224 -6.9761 35.2157 xyz
    dof rx ry rz
  end
  begin
    id 5
    name HeadDummy
    direction 0.810939 0.572387 0.121455
    length 3.55534
    axis 2.2224 -6.9761 35.2157 xyz
  end
  begin
    id 6
    name Head
    direction 0.998226 -0.000232542 0.0595419
    length 7.35666
    axis -3.03688 -3.41352 -0.0133467 xyz
    dof rx ry rz
  end
  begin
    id 7
    name R_ClavicleDummy
    direction 0.531669 -0.194489 -0.824319
    length 2.49392
    axis 2.2224 -6.9761 35.2157 xyz
  end
  begin
    id 8
    name R_Clavicle
    direction -0.155119 0.0480802 -0.986725
    length 4.485
    axis -54.2764 80.6538 162.779 xyz
    dof rx ry rz
  end
  begin
    id 9
    name R_UpperArm
    direction -0.955567 0.200068 -0.216484
    length 10.1122
    axis -72.9943 12.5026 168.175 xyz
    dof rx ry rz
  end
  begin
    id 10
    name R_Forearm
    direction -0.61433 0.385743 0.688332
    length 9.39148
    axis -117.015 -43.4982 147.875 xyz
    dof rx ry rz
  end
  begin
    id 11
    name R_Hand
    direction -0.699429 0.0170333 0.714499
    length 3.66324
    axis -45.0303 -36.7097 175.478 xyz
    dof rx ry rz
  end
  begin
    id 12
    name L_ClavicleDummy
    direction 0.40287 -0.36502 0.839319
    length 2.49392
    axis 2.2224 -6.9761 35.2157 xyz
  end
  begin
    id 13
    name L_Clavicle
    direction -0.231271 -0.0726419 0.970174
    length 4.485
    axis 18.4357 -75.9711 -162.563 xyz
    dof rx ry rz
  end
  begin
    id 14
    name L_UpperArm
    direction -0.917494 0.144359 0.370629
    length 10.1122
    axis 56.0417 -21.7544 171.058 xyz
    dof rx ry rz
  end
  begin
    id 15
    name L_Forearm
    direction -0.496786 0.615074 -0.612281
    length 9.39148
    axis 89.8094 37.7546 128.927 xyz
    dof rx ry rz
  end
  begin
    id 16
    name L_Hand
    direction -0.409932 0.64962 -0.640274
    length 3.66324
    axis -0.424369 32.133 128.52 xyz
    dof rx ry rz
  end
  begin
    id 17
    name L_ThighDummy
    direction -1.84081e-006 1.87549e-006 1
    length 3.13049
    axis 0 0 0 xyz
  end
  begin
    id 18
    name L_Thigh
    direction -0.947739 0.307978 0.083308
    length 17.9961
    axis 173.219 -4.77873 161.998 xyz
    dof rx ry rz
  end
  begin
    id 19
    name L_Calf
    direction -0.728814 -0.684427 0.0197583
    length 13.3367
    axis 167.331 -1.13214 -136.799 xyz
    dof rx ry rz
  end
  begin
    id 20
    name L_Foot
    direction -0.9028 0.418719 0.0981191
    length 5.8674
    axis 163.436 11.5135 -155.37 xyz
    dof rx ry rz
  end
  begin
    id 21
    name L_Toe0
    direction -0.35341 0.886259 0.299411
    length 4.75286
    axis 169.316 -17.4222 111.74 xyz
    dof rx ry rz
  end
  begin
    id 22
    name R_ThighDummy
    direction 9.32778e-007 -8.82053e-007 -1
    length 3.13049
    axis 0 0 0 xyz
  end
  begin
    id 23
    name R_Thigh
    direction -0.925064 0.37528 -0.0585023
    length 17.9961
    axis -178.698 3.35385 157.919 xyz
    dof rx ry rz
  end
  begin
    id 24
    name R_Calf
    direction -0.68969 -0.718776 -0.0876886
    length 13.3367
    axis -160.504 5.03065 -133.817 xyz
    dof rx ry rz
  end
  begin
    id 25
    name R_Foot
    direction -0.857405 0.418858 -0.299022
    length 5.8674
    axis -161.328 4.38911 -154.413 xyz
    dof rx ry rz
  end
  begin
    id 26
    name R_Toe0
    direction -0.100745 0.952789 -0.286433
    length 4.75286
    axis 171.683 16.6445 96.0359 xyz
    dof rx ry rz
  end
:hierarchy
  begin
    root SpineDummy L_ThighDummy R_ThighDummy
    SpineDummy Spine
    Spine Spine1
    Spine1 Neck
    Neck HeadDummy R_ClavicleDummy L_ClavicleDummy
    HeadDummy Head
    R_ClavicleDummy R_Clavicle
    R_Clavicle R_UpperArm
    R_UpperArm R_Forearm
    R_Forearm R_Hand
    L_ClavicleDummy L_Clavicle
    L_Clavicle L_UpperArm
    L_UpperArm L_Forearm
    L_Forearm L_Hand
    L_ThighDummy L_Thigh
    L_Thigh L_Calf
    L_Calf L_Foot
    L_Foot L_Toe0
    R_ThighDummy R_Thigh
    R_Thigh R_Calf
    R_Calf R_Foot
    R_Foot R_Toe0
  end

:SAMPLES-PER-SECOND 30
:FULLY-SPECIFIED
:DEGREES
340
root  -2.69611 34.6887 -8.50621 -174.285 -23.0713 -31.6566
Spine  4.68339 12.5554 24.2535
Spine1  1.68786 -12.1654 -32.8258
Neck  3.97569e-016 0 -2.38542e-015
Head  7.92608 5.35953 25.5067
R_Clavicle  4.6734 32.3312 11.3782
R_UpperArm  58.4917 41.5135 -21.935
R_Forearm  97.4474 6.72874 7.45835
R_Hand  -13.437 1.38622 -131.064
L_Clavicle  -0.619562 -2.3773 4.32837
L_UpperArm  -38.5691 -45.122 -8.8226
L_Forearm  -87.601 2.67411 10.5487
L_Hand  28.3808 -36.3159 -80.584
L_Thigh  -29.496 39.6902 3.78706
L_Calf  -1.21412 -7.14935 40.4424
L_Foot  -1.85491 -3.29725 -6.05887
L_Toe0  0.505156 0.0344454 -6.1361
R_Thigh  -20.1332 -58.1919 51.3395
R_Calf  2.91795 3.08296 9.44497
R_Foot  1.39455 5.54636 3.52175
R_Toe0  -1.78853 -0.270668 -17.3236
341
root  -2.89991 34.8561 -9.95627 166.603 -14.3231 -31.8546
Spine  12.5342 20.55 29.1793
Spine1  10.8754 -28.1919 -36.7819
Neck  3.97569e-016 0 -2.38542e-015
Head  7.21805 6.22775 29.2685
R_Clavicle  3.94611 34.2967 9.55369
R_UpperArm  57.6906 42.5493 -13.6158
R_Forearm  113.908 3.61942 8.26423
R_Hand  -24.3082 9.87879 -130.881
L_Clavicle  -1.58856 -3.59972 9.64092
L_UpperArm  -32.1879 -51.8925 -17.0848
L_Forearm  -79.8242 8.36815 16.7739
L_Hand  26.0601 -35.5245 -79.9868
L_Thigh  -35.4159 37.5366 7.53074
L_Calf  2.06552 -3.98528 31.3882
L_Foot  -0.960755 -2.38316 -2.09201
L_Toe0  0.505156 0.0344454 -6.1361
R_Thigh  -23.3816 -59.541 55.0579
R_Calf  4.96803 0.751342 2.16318
R_Foot  0.973157 4.17058 3.13603
R_Toe0  -1.78853 -0.270654 -17.3236
342
root  -3.40828 35.0982 -11.0031 147.127 -6.08008 -32.8534
Spine  20.3705 24.1469 34.8517
Spine1  21.8598 -41.2562 -42.7026
Neck  3.97569e-016 0 -2.38542e-015
Head  5.37983 7.41135 33.1668
R_Clavicle  1.13471 35.1088 3.62381
R_UpperArm  63.7251 40.3109 -2.55103
R_Forearm  106.428 0.937362 9.09126
R_Hand  -46.8092 37.8118 -117.503
L_Clavicle  -3.17515 -7.53457 16.471
L_UpperArm  -21.2797 -60.3867 -23.9828
L_Forearm  -79.6198 16.2294 20.3982
L_Hand  21.2411 -34.8452 -69.1954
L_Thigh  -34.8911 36.8555 14.034
L_Calf  0.889973 -3.84926 28.6126
L_Foot  0.169424 0.527712 0.224215
L_Toe0  0.505156 0.0344454 -6.1361
R_Thigh  -26.4393 -59.3709 57.8092
R_Calf  7.07681 -1.57039 -5.0352
R_Foot  0.474328 2.82537 3.82946
R_Toe0  -1.78853 -0.270639 -17.3236
343
root  -4.058 35.4021 -11.7081 129.442 2.48306 -34.4492
Spine  24.5508 24.5173 36.7476
Spine1  28.0056 -47.2901 -44.3507
Neck  3.97569e-016 0 -2.38542e-015
Head  6.32772 9.1798 33.843
R_Clavicle  -1.59602 32.3618 -2.23785
R_UpperArm  64.1307 46.43 0.249506
R_Forearm  69.8691 -15.8794 22.2455
R_Hand  -9.80082 52.8946 -35.2993
L_Clavicle  -4.6525 -8.57933 22.7547
L_UpperArm  -11.2369 -68.5807 -30.5949
L_Forearm  -81.5322 17.3552 17.3315
L_Hand  22.7777 -37.6863 -67.8038
L_Thigh  -30.4933 37.4418 23.7172
L_Calf  -2.55904 -4.16666 31.2432
L_Foot  0.535349 2.53275 -0.405678
L_Toe0  0.505156 0.0344454 -6.1361
R_Thigh  -26.452 -59.9366 55.33
R_Calf  9.72919 -3.52261 -11.1495
R_Foot  -0.788155 -0.487616 5.34797
R_Toe0  -1.78853 -0.270625 -17.3236
344
root  -4.90675 35.7167 -12.0869 113.751 12.3916 -36.9377
Spine  25.5221 24.1872 36.0968
Spine1  27.457 -47.9787 -40.886
Neck  3.97569e-016 0 -2.38542e-015
Head  9.93127 12.0693 32.8295
R_Clavicle  -2.48399 27.5562 -4.74963
R_UpperArm  52.6735 60.2067 -4.31934
R_Forearm  37.3223 -33.3011 37.5664
R_Hand  0.555482 16.0621 -7.80185
L_Clavicle  -5.26323 -6.33137 27.626
L_UpperArm  -9.05518 -73.8035 -34.1314
L_Forearm  -69.8171 13.2531 15.0057
L_Hand  28.4056 -42.1866 -72.4463
L_Thigh  -25.6673 37.8252 33.9829
L_Calf  -6.86237 -4.78159 36.4563
L_Foot  0.626783 3.44649 -0.973446
L_Toe0  0.505156 0.0344454 -6.1361
R_Thigh  -22.7565 -61.5309 45.8426
R_Calf  12.7227 -4.93124 -15.6499
R_Foot  -2.10563 -4.05013 6.05873
R_Toe0  -1.78853 -0.270611 -17.3236
345
root  -5.99388 36.0294 -12.0147 97.6633 22.6546 -41.7327
Spine  26.0437 23.0058 36.2261
Spine1  26.3335 -45.6989 -39.296
Neck  3.97569e-016 0 -2.38542e-015
Head  13.152 15.0205 33.759
R_Clavicle  -2.27265 22.9851 -4.84381
R_UpperArm  50.5303 57.9977 10.6733
R_Forearm  34.8261 -18.6104 15.8749
R_Hand  0.808893 10.9009 -7.26155
L_Clavicle  -6.00446 -5.75949 31.9407
L_UpperArm  -11.4632 -75.722 -33.012
L_Forearm  -46.4588 11.4203 16.9829
L_Hand  28.3363 -41.2554 -73.8312
L_Thigh  -26.0935 36.7742 43.1271
L_Calf  -6.21009 -5.28003 40.5135
L_Foot  1.23945 4.9186 0.107416
L_Toe0  0.505156 0.0344454 -6.1361
R_Thigh  -18.3717 -61.4912 33.0513
R_Calf  14.8382 -6.19386 -19.7846
R_Foot  -2.28739 -4.2134 6.86365
R_Toe0  -1.78853 -0.270598 -17.3236
346
root  -7.30313 36.1852 -11.4396 79.5369 31.0507 -49.6088
Spine  26.8692 21.7642 37.4278
Spine1  26.355 -42.4557 -40.9697
Neck  3.97569e-016 0 -2.38542e-015
Head  14.8247 16.2059 36.4054
R_Clavicle  -1.84303 21.3628 -3.94121
R_UpperArm  56.6249 53.2894 30.1565
R_Forearm  29.1186 -3.3673 2.77611
R_Hand  -0.357348 8.52508 -14.4307
L_Clavicle  -7.80029 -9.13086 36.0669
L_UpperArm  -20.5497 -76.859 -21.268
L_Forearm  -29.3428 12.4623 18.5574
L_Hand  26.3022 -39.9173 -71.8775
L_Thigh  -28.5201 33.027 51.1366
L_Calf  -3.5886 -5.06689 38.9492
L_Foot  1.8221 5.9018 1.45934
L_Toe0  0.505156 0.0344454 -6.1361
R_Thigh  -15.191 -59.7542 22.4785
R_Calf  17.2652 -7.74645 -25.0463
R_Foot  -2.41906 -3.48755 9.3129
R_Toe0  -1.78853 -0.270584 -17.3236
347
root  -8.48756 36.1011 -10.2641 57.928 37.1074 -60.1555
Spine  27.127 20.5576 39.0157
Spine1  25.6285 -39.0079 -42.2416
Neck  3.97569e-016 0 -2.38542e-015
Head  14.5396 16.0712 39.061
R_Clavicle  -1.29013 21.1574 -2.46532
R_UpperArm  66.1912 44.9826 45.8441
R_Forearm  24.8758 5.34709 -4.48675
R_Hand  -1.57815 9.21951 -22.9909
L_Clavicle  -8.69725 -10.2933 38.3664
L_UpperArm  -39.171 -76.3575 1.93806
L_Forearm  -21.409 10.1507 13.4895
L_Hand  28.626 -43.9228 -70.0822
L_Thigh  -29.0041 28.1521 54.4357
L_Calf  -5.38667 -4.38694 33.1124
L_Foot  1.89651 5.58446 2.07223
L_Toe0  0.505156 0.0344454 -6.1361
R_Thigh  -11.9993 -57.5603 14.8079
R_Calf  20.4285 -9.0616 -29.6876
R_Foot  -3.04385 -4.30076 11.3299
R_Toe0  -1.78853 -0.27057 -17.3236
348
root  -9.06146 35.8228 -8.59905 30.5427 40.0862 -72.5945
Spine  26.7707 18.4751 40.0175
Spine1  25.0303 -35.5161 -41.9006
Neck  3.97569e-016 0 -2.38542e-015
Head  9.61854 16.0081 41.6366
R_Clavicle  -0.799462 17.8511 -1.48288
R_UpperArm  73.9777 37.095 55.776
R_Forearm  25.2526 7.07895 -5.94764
R_Hand  -2.89046 7.55328 -34.095
L_Clavicle  -7.67377 -7.49271 37.5872
L_UpperArm  -57.5467 -74.566 24.3565
L_Forearm  -7.39286 8.15507 9.57731
L_Hand  25.2909 -45.8421 -60.5848
L_Thigh  -33.7202 26.957 49.927
L_Calf  -3.91448 -3.79682 29.3829
L_Foot  1.74003 4.74181 2.32859
L_Toe0  0.505156 0.0344454 -6.1361
R_Thigh  -10.5128 -53.7765 10.3551
R_Calf  17.4019 -8.37307 -27.2122
R_Foot  -2.46855 -3.48185 9.73898
R_Toe0  -1.78853 -0.270557 -17.3236
349
root  -8.74338 35.2721 -6.71695 0.80542 38.3633 -83.6857
Spine  26.3193 17.7301 38.7128
Spine1  24.8801 -32.3293 -40.1923
Neck  3.97569e-016 0 -2.38542e-015
Head  -0.643997 15.4424 44.0351
R_Clavicle  -0.353275 12.5552 -0.428189
R_UpperArm  81.3088 30.2673 61.1827
R_Forearm  27.6577 6.51913 -5.47285
R_Hand  -4.16215 7.49592 -43.9242
L_Clavicle  -6.71046 -6.48384 34.4669
L_UpperArm  -72.854 -70.5697 47.2562
L_Forearm  16.1556 12.203 12.4587
L_Hand  16.3515 -36.9967 -52.1368
L_Thigh  -37.8014 29.1347 39.4011
L_Calf  0.440064 -5.63997 33.0377
L_Foot  1.96754 5.56733 2.39739
L_Toe0  0.505156 0.0344454 -6.1361
R_Thigh  -7.89871 -48.6226 5.58378
R_Calf  4.88725 -3.51039 -11.1698
R_Foot  0.204169 1.957 3.02891
R_Toe0  -1.78853 -0.270544 -17.3236
350
root  -7.54465 35.0889 -5.15703 -24.7214 33.2711 -89.9212
Spine  24.7221 18.8179 35.0144
Spine1  22.1998 -27.6908 -37.7611
Neck  3.97569e-016 0 -2.38542e-015
Head  -10.1801 12.4707 45.6915
R_Clavicle  -0.100643 9.82474 0.293791
R_UpperArm  88.1999 23.8363 61.116
R_Forearm  24.8363 6.06123 -5.08673
R_Hand  -3.678 3.53448 -46.4777
L_Clavicle  -7.28593 -8.46117 34.6362
L_UpperArm  -75.4737 -59.1937 61.51
L_Forearm  32.692 14.8562 12.7712
L_Hand  16.8387 -35.8969 -55.3077
L_Thigh  -22.4416 31.6537 27.2692
L_Calf  -10.6944 -12.063 43.3485
L_Foot  2.84091 9.99241 1.3729
L_Toe0  0.505156 0.0344454 -6.1361
R_Thigh  5.35973 -44.9163 -6.62089
R_Calf  -6.74897 4.89888 15.3916
R_Foot  3.99781 14.2534 -7.16772
R_Toe0  -1.78853 -0.270531 -17.3236
351
root  -6.20966 35.9122 -4.58062 -47.9626 28.152 -90.7077
Spine  20.3678 16.1981 29.4497
Spine1  17.2348 -18.6638 -36.0449
Neck  3.97569e-016 0 -2.38542e-015
Head  -15.0742 7.25154 45.7172
R_Clavicle  0.213881 10.8398 1.43054
R_UpperArm  93.8751 22.0109 57.829
R_Forearm  19.149 4.61287 -3.87006
R_Hand  -1.82268 -5.16089 -56.459
L_Clavicle  -12.1197 -14.2927 45.9359
L_UpperArm  -62.2243 -39.4568 56.0556
L_Forearm  34.2327 8.71859 5.74134
L_Hand  30.0996 -48.9832 -64.6735
L_Thigh  -6.6386 37.1656 16.5672
L_Calf  -25.7429 -10.8076 50.2743
L_Foot  4.31852 14.8567 2.08422
L_Toe0  0.505156 0.0344454 -6.1361
R_Thigh  24.1541 -40.7113 -18.9023
R_Calf  -11.853 11.3708 37.6604
R_Foot  5.64428 25.3561 -16.1937
R_Toe0  -1.78853 -0.270518 -17.3236
